<svg width="272" height="80" viewBox="0 0 272 80" fill="none" xmlns="http://www.w3.org/2000/svg">
<g clip-path="url(#clip0)">
<g clip-path="url(#clip1)">
<path d="M73.1367 31.8271H75.9771V38.5989H83.7447V31.8271H86.585V48.1727H83.7447V41.2842H75.9771V48.1727H73.1367V31.8271Z" fill="black"/>
<path d="M92.7005 40.0526C92.6847 38.9662 92.8864 37.8877 93.2938 36.8815C93.7011 35.8753 94.3057 34.9622 95.0713 34.1966C95.8369 33.431 96.7479 32.8287 97.7498 32.4256C98.7518 32.0226 99.8241 31.827 100.903 31.8507C101.974 31.8166 103.04 32.0016 104.038 32.3943C105.035 32.7871 105.944 33.3795 106.708 34.1358C107.472 34.8921 108.075 35.7965 108.483 36.7944C108.89 37.7923 109.092 38.863 109.076 39.9417V40.0001C109.09 41.0846 108.886 42.1607 108.478 43.1641C108.069 44.1676 107.464 45.0779 106.698 45.8407C105.933 46.6035 105.023 47.2032 104.022 47.6038C103.021 48.0045 101.95 48.1981 100.874 48.1729C99.8006 48.2071 98.7317 48.0213 97.732 47.6267C96.7323 47.2322 95.8226 46.6371 95.0583 45.8777C94.2939 45.1183 93.6907 44.2103 93.2854 43.209C92.8801 42.2077 92.6811 41.1338 92.7005 40.0526ZM106.149 40.0526C106.149 36.9645 103.917 34.4368 100.851 34.4368C97.7842 34.4368 95.6336 36.9061 95.6336 40.0001V40.0585C95.6336 43.0941 97.8654 45.6744 100.932 45.6744C103.998 45.6744 106.149 43.1466 106.149 40.0526Z" fill="black"/>
<path d="M118.235 34.5125H113.076V31.8271H126.234V34.5125H121.075V48.1727H118.177V34.5125H118.235Z" fill="black"/>
<path d="M131.567 31.8271H143.624V34.3957H134.466V38.6573H142.581V41.2259H134.466V45.6042H143.74V48.1727H131.567V31.8271Z" fill="black"/>
<path d="M149.421 31.8271H152.262V45.5574H160.783V48.1844H149.421V31.8271Z" fill="black"/>
<path d="M166.405 31.8271H177.941V32.9363H167.623V39.3578H176.897V40.467H167.623V47.0052H178.057V48.1144H166.405V31.8271Z" fill="black"/>
<path d="M184.259 31.8271H185.419L196.606 46.0712V31.8271H197.766V48.1727H196.838L185.419 33.6368V48.1727H184.259V31.8271Z" fill="black"/>
<path d="M204.432 40.0757C204.432 35.7675 207.527 31.8037 212.193 31.8037C214.303 31.7345 216.357 32.4849 217.932 33.8994L217.144 34.8043C215.77 33.5235 213.955 32.8324 212.083 32.8778C208.257 32.8778 205.556 36.1645 205.556 39.959V40.0174C205.556 44.1038 208.089 47.1569 212.309 47.1569C214.135 47.1434 215.902 46.5029 217.318 45.3414V40.8113H212.025V39.7196H218.436V45.8376C216.728 47.3565 214.536 48.2078 212.257 48.2369C207.359 48.2369 204.432 44.5533 204.432 40.0757Z" fill="black"/>
<path d="M225.589 31.8271H226.807V48.1727H225.589V31.8271Z" fill="black"/>
<path d="M234.111 31.8271H235.27L246.458 46.0712V31.8271H247.617V48.1727H246.689L235.27 33.6368V48.1727H234.111V31.8271Z" fill="black"/>
<path d="M254.747 31.8271H266.282V32.9363H255.964V39.3578H265.239V40.467H255.964V47.0052H266.398V48.1144H254.747V31.8271Z" fill="black"/>
<path d="M13.5178 30.0527H10.179V50.0878H13.5178V30.0527Z" fill="black"/>
<path d="M23.065 30.0527H19.7261V50.0878H23.065V30.0527Z" fill="black"/>
<path d="M21.8245 38.7563H12.2136V42.1189H21.8245V38.7563Z" fill="black"/>
<path d="M39.9856 30.0527H29.9399V33.4153H39.9856V30.0527Z" fill="black"/>
<path d="M39.9856 38.3828H29.9399V41.7453H39.9856V38.3828Z" fill="black"/>
<path d="M39.9856 46.7192H29.9399V50.0818H39.9856V46.7192Z" fill="black"/>
<path d="M0 20V60H50.1645V20H0ZM46.8604 56.6492H3.30411V23.3275H46.8604V56.6492Z" fill="black"/>
<path d="M269 46.7252C268.999 46.5892 269.017 46.4536 269.052 46.3224C269.087 46.1957 269.137 46.074 269.203 45.9604C269.267 45.8495 269.345 45.7474 269.435 45.6569C269.525 45.5669 269.627 45.4884 269.736 45.4234C269.965 45.2884 270.225 45.2173 270.49 45.2173C270.755 45.2173 271.015 45.2884 271.243 45.4234C271.353 45.4885 271.454 45.567 271.545 45.6569C271.635 45.7475 271.713 45.8495 271.777 45.9604C271.842 46.074 271.893 46.1957 271.927 46.3224C271.998 46.5788 272 46.8497 271.933 47.1072C271.866 47.3647 271.732 47.5996 271.545 47.7877C271.454 47.8777 271.353 47.9561 271.243 48.0212C271.015 48.1567 270.755 48.2282 270.49 48.2282C270.225 48.2282 269.965 48.1567 269.736 48.0212C269.626 47.9562 269.525 47.8778 269.435 47.7877C269.345 47.697 269.267 47.595 269.203 47.4841C269.138 47.3724 269.087 47.2527 269.052 47.128C269.016 46.9968 268.999 46.8612 269 46.7252ZM269.203 46.7252C269.203 46.8435 269.219 46.9612 269.249 47.0755C269.307 47.2956 269.421 47.4968 269.58 47.6592C269.739 47.8226 269.939 47.9395 270.159 47.9978C270.273 48.0293 270.39 48.045 270.507 48.0445C270.681 48.0447 270.852 48.009 271.011 47.9394C271.165 47.8736 271.305 47.7784 271.423 47.6592C271.542 47.5383 271.636 47.3956 271.701 47.2389C271.768 47.0761 271.802 46.9014 271.8 46.7252C271.801 46.49 271.741 46.2586 271.626 46.0539C271.57 45.9561 271.502 45.8658 271.423 45.7853C271.346 45.7039 271.258 45.6333 271.162 45.5752C271.064 45.5168 270.959 45.4716 270.849 45.4409C270.736 45.4093 270.619 45.3935 270.501 45.3942C270.328 45.3935 270.156 45.4293 269.997 45.4993C269.843 45.5666 269.703 45.6638 269.585 45.7853C269.341 46.0364 269.204 46.3737 269.203 46.7252ZM270.2 46.912V47.6417H269.881V45.8028H270.461C270.644 45.7891 270.826 45.8341 270.983 45.9313C271.039 45.9759 271.084 46.0338 271.113 46.0999C271.143 46.1661 271.155 46.2384 271.151 46.3107C271.153 46.4293 271.114 46.5449 271.04 46.6376C270.956 46.7343 270.842 46.8 270.716 46.8244C270.738 46.8385 270.758 46.8563 270.774 46.877L270.82 46.947L271.29 47.6359H270.988C270.969 47.6367 270.949 47.6323 270.932 47.6231C270.915 47.6139 270.9 47.6001 270.89 47.5833L270.478 46.9587C270.466 46.9416 270.45 46.9276 270.432 46.9178C270.405 46.9112 270.377 46.9112 270.351 46.9178L270.2 46.912ZM270.2 46.6785H270.438C270.501 46.6869 270.565 46.6869 270.629 46.6785C270.676 46.6669 270.719 46.6449 270.756 46.6143C270.788 46.5879 270.812 46.5537 270.826 46.515C270.834 46.4687 270.834 46.4213 270.826 46.3749C270.833 46.3305 270.833 46.2851 270.826 46.2407C270.814 46.2042 270.792 46.1719 270.762 46.1473C270.728 46.1194 270.689 46.0995 270.646 46.0889C270.587 46.0815 270.526 46.0815 270.467 46.0889H270.194L270.2 46.6785Z" fill="black"/>
</g>
</g>
<defs>
<clipPath id="clip0">
<rect width="272" height="80" fill="white"/>
</clipPath>
<clipPath id="clip1">
<rect width="272.432" height="40" fill="white" transform="translate(0 20)"/>
</clipPath>
</defs>
</svg>
